<mxfile host="app.diagrams.net" modified="2021-08-04T03:22:12.406Z" agent="5.0 (Macintosh; Intel Mac OS X 10_15_7) AppleWebKit/537.36 (KHTML, like Gecko) Chrome/92.0.4515.107 Safari/537.36" etag="ZN1vN1_CZNFG82SrwweM" version="14.9.3" type="github">
  <diagram id="RNIP3qYjZy2uPSxA_iTI" name="Page-1">
    <mxGraphModel dx="1426" dy="826" grid="1" gridSize="10" guides="1" tooltips="1" connect="1" arrows="1" fold="1" page="1" pageScale="1" pageWidth="827" pageHeight="1569" math="0" shadow="0">
      <root>
        <mxCell id="0" />
        <mxCell id="1" parent="0" />
        <mxCell id="1DitNz6oNe6zP9pH3YD5-15" style="edgeStyle=orthogonalEdgeStyle;rounded=0;orthogonalLoop=1;jettySize=auto;html=1;entryX=0.5;entryY=0;entryDx=0;entryDy=0;" edge="1" parent="1" source="1DitNz6oNe6zP9pH3YD5-1" target="1DitNz6oNe6zP9pH3YD5-4">
          <mxGeometry relative="1" as="geometry" />
        </mxCell>
        <mxCell id="1DitNz6oNe6zP9pH3YD5-1" value="开始" style="ellipse;whiteSpace=wrap;html=1;" vertex="1" parent="1">
          <mxGeometry x="314" y="20" width="120" height="80" as="geometry" />
        </mxCell>
        <mxCell id="1DitNz6oNe6zP9pH3YD5-16" style="edgeStyle=orthogonalEdgeStyle;rounded=0;orthogonalLoop=1;jettySize=auto;html=1;entryX=0.5;entryY=0;entryDx=0;entryDy=0;" edge="1" parent="1" source="1DitNz6oNe6zP9pH3YD5-4" target="1DitNz6oNe6zP9pH3YD5-5">
          <mxGeometry relative="1" as="geometry" />
        </mxCell>
        <mxCell id="1DitNz6oNe6zP9pH3YD5-19" value="" style="edgeStyle=orthogonalEdgeStyle;rounded=0;orthogonalLoop=1;jettySize=auto;html=1;dashed=1;" edge="1" parent="1" source="1DitNz6oNe6zP9pH3YD5-4" target="1DitNz6oNe6zP9pH3YD5-8">
          <mxGeometry relative="1" as="geometry" />
        </mxCell>
        <mxCell id="1DitNz6oNe6zP9pH3YD5-4" value="&lt;span&gt;首先判断是否是 combo&lt;/span&gt;" style="rhombus;whiteSpace=wrap;html=1;" vertex="1" parent="1">
          <mxGeometry x="324" y="140" width="100" height="100" as="geometry" />
        </mxCell>
        <mxCell id="1DitNz6oNe6zP9pH3YD5-17" style="edgeStyle=orthogonalEdgeStyle;rounded=0;orthogonalLoop=1;jettySize=auto;html=1;entryX=0.5;entryY=0;entryDx=0;entryDy=0;" edge="1" parent="1" source="1DitNz6oNe6zP9pH3YD5-5" target="1DitNz6oNe6zP9pH3YD5-9">
          <mxGeometry relative="1" as="geometry" />
        </mxCell>
        <mxCell id="1DitNz6oNe6zP9pH3YD5-20" style="edgeStyle=orthogonalEdgeStyle;rounded=0;orthogonalLoop=1;jettySize=auto;html=1;entryX=0;entryY=0.5;entryDx=0;entryDy=0;dashed=1;" edge="1" parent="1" source="1DitNz6oNe6zP9pH3YD5-5" target="1DitNz6oNe6zP9pH3YD5-7">
          <mxGeometry relative="1" as="geometry" />
        </mxCell>
        <mxCell id="1DitNz6oNe6zP9pH3YD5-5" value="桶的类型&lt;br&gt;等于Proxy" style="rhombus;whiteSpace=wrap;html=1;" vertex="1" parent="1">
          <mxGeometry x="324" y="275" width="100" height="100" as="geometry" />
        </mxCell>
        <mxCell id="1DitNz6oNe6zP9pH3YD5-7" value="直接请求&lt;br&gt;storage-agent" style="shape=document;whiteSpace=wrap;html=1;boundedLbl=1;" vertex="1" parent="1">
          <mxGeometry x="520" y="285" width="120" height="80" as="geometry" />
        </mxCell>
        <mxCell id="1DitNz6oNe6zP9pH3YD5-8" value="combo 处理逻辑" style="shape=document;whiteSpace=wrap;html=1;boundedLbl=1;" vertex="1" parent="1">
          <mxGeometry x="530" y="150" width="120" height="80" as="geometry" />
        </mxCell>
        <mxCell id="1DitNz6oNe6zP9pH3YD5-18" style="edgeStyle=orthogonalEdgeStyle;rounded=0;orthogonalLoop=1;jettySize=auto;html=1;entryX=0.5;entryY=0;entryDx=0;entryDy=0;" edge="1" parent="1" source="1DitNz6oNe6zP9pH3YD5-9" target="1DitNz6oNe6zP9pH3YD5-10">
          <mxGeometry relative="1" as="geometry" />
        </mxCell>
        <mxCell id="1DitNz6oNe6zP9pH3YD5-9" value="把request 转换成foptask" style="whiteSpace=wrap;html=1;aspect=fixed;" vertex="1" parent="1">
          <mxGeometry x="334" y="420" width="80" height="80" as="geometry" />
        </mxCell>
        <mxCell id="1DitNz6oNe6zP9pH3YD5-21" style="edgeStyle=orthogonalEdgeStyle;rounded=0;orthogonalLoop=1;jettySize=auto;html=1;exitX=1;exitY=0.5;exitDx=0;exitDy=0;" edge="1" parent="1" source="1DitNz6oNe6zP9pH3YD5-10">
          <mxGeometry relative="1" as="geometry">
            <mxPoint x="540" y="585" as="targetPoint" />
          </mxGeometry>
        </mxCell>
        <mxCell id="1DitNz6oNe6zP9pH3YD5-22" style="edgeStyle=orthogonalEdgeStyle;rounded=0;orthogonalLoop=1;jettySize=auto;html=1;entryX=0.5;entryY=0;entryDx=0;entryDy=0;" edge="1" parent="1" source="1DitNz6oNe6zP9pH3YD5-10" target="1DitNz6oNe6zP9pH3YD5-12">
          <mxGeometry relative="1" as="geometry" />
        </mxCell>
        <mxCell id="1DitNz6oNe6zP9pH3YD5-10" value="oss image&lt;br&gt;process" style="rhombus;whiteSpace=wrap;html=1;" vertex="1" parent="1">
          <mxGeometry x="327" y="540" width="94" height="90" as="geometry" />
        </mxCell>
        <mxCell id="1DitNz6oNe6zP9pH3YD5-23" style="edgeStyle=orthogonalEdgeStyle;rounded=0;orthogonalLoop=1;jettySize=auto;html=1;entryX=0.5;entryY=0;entryDx=0;entryDy=0;" edge="1" parent="1" source="1DitNz6oNe6zP9pH3YD5-12" target="1DitNz6oNe6zP9pH3YD5-14">
          <mxGeometry relative="1" as="geometry" />
        </mxCell>
        <mxCell id="1DitNz6oNe6zP9pH3YD5-12" value="fop 相关处理" style="whiteSpace=wrap;html=1;aspect=fixed;" vertex="1" parent="1">
          <mxGeometry x="334" y="680" width="80" height="80" as="geometry" />
        </mxCell>
        <mxCell id="1DitNz6oNe6zP9pH3YD5-14" value="结束" style="ellipse;whiteSpace=wrap;html=1;" vertex="1" parent="1">
          <mxGeometry x="314" y="800" width="120" height="80" as="geometry" />
        </mxCell>
        <mxCell id="1DitNz6oNe6zP9pH3YD5-26" style="edgeStyle=orthogonalEdgeStyle;rounded=0;orthogonalLoop=1;jettySize=auto;html=1;entryX=1;entryY=0.5;entryDx=0;entryDy=0;" edge="1" parent="1" source="1DitNz6oNe6zP9pH3YD5-24" target="1DitNz6oNe6zP9pH3YD5-14">
          <mxGeometry relative="1" as="geometry">
            <Array as="points">
              <mxPoint x="580" y="840" />
            </Array>
          </mxGeometry>
        </mxCell>
        <mxCell id="1DitNz6oNe6zP9pH3YD5-24" value="&lt;span&gt;直接请求&lt;/span&gt;&lt;br&gt;&lt;span&gt;storage-agent&lt;/span&gt;" style="whiteSpace=wrap;html=1;aspect=fixed;" vertex="1" parent="1">
          <mxGeometry x="540" y="545" width="80" height="80" as="geometry" />
        </mxCell>
      </root>
    </mxGraphModel>
  </diagram>
</mxfile>
